# This file uses centimeters as units for non-parametric coordinates.

mtllib Addblocker moddel.mtl
g default
v -0.437506 0.332003 0.101389
v -0.142423 0.062494 0.101389
v 0.142423 0.062494 0.101389
v 0.437506 0.332003 0.101389
v -0.437506 0.667997 0.101389
v -0.142423 0.937506 0.101389
v 0.142423 0.937506 0.101389
v 0.437506 0.667997 0.101389
v -0.437506 0.667997 -0.101389
v -0.142423 0.937506 -0.101389
v 0.142423 0.937506 -0.101389
v 0.437506 0.667997 -0.101389
v -0.437506 0.332003 -0.101389
v -0.142423 0.062494 -0.101389
v 0.142423 0.062494 -0.101389
v 0.437506 0.332003 -0.101389
v -0.484080 0.311465 0.072411
v -0.500000 0.304445 0.043756
v -0.160491 0.015920 0.072411
v -0.166667 0.000000 0.043756
v -0.484080 0.688535 0.072411
v -0.500000 0.695555 0.043756
v 0.160491 0.015920 0.072411
v 0.166667 0.000000 0.043756
v 0.484080 0.311465 0.072411
v 0.500000 0.304445 0.043756
v 0.484080 0.688535 0.072411
v 0.500000 0.695555 0.043756
v -0.160491 0.984080 0.072411
v -0.166667 1.000000 0.043756
v 0.160491 0.984080 0.072411
v 0.166667 1.000000 0.043756
v -0.484080 0.688535 -0.072411
v -0.500000 0.695555 -0.043756
v -0.484080 0.311465 -0.072411
v -0.500000 0.304445 -0.043756
v -0.160491 0.984080 -0.072411
v -0.166667 1.000000 -0.043756
v 0.160491 0.984080 -0.072411
v 0.166667 1.000000 -0.043756
v 0.484080 0.688535 -0.072411
v 0.500000 0.695555 -0.043756
v 0.484080 0.311465 -0.072411
v 0.500000 0.304445 -0.043756
v -0.160491 0.015920 -0.072411
v -0.166667 0.000000 -0.043756
v 0.160491 0.015920 -0.072411
v 0.166667 0.000000 -0.043756
vt 0.427430 0.338827
vt 0.457622 0.339966
vt 0.457833 0.439487
vt 0.427779 0.440507
vt 0.430775 0.221137
vt 0.462684 0.225040
vt 0.497148 0.340992
vt 0.496958 0.440556
vt 0.463653 0.555937
vt 0.431729 0.560494
vt 0.336821 0.339848
vt 0.337170 0.441527
vt 0.332871 0.219861
vt 0.495902 0.232693
vt 0.496792 0.547676
vt 0.333825 0.559218
vt 0.306978 0.440389
vt 0.306768 0.340868
vt 0.300947 0.224418
vt 0.301917 0.555314
vt 0.270550 0.441276
vt 0.271049 0.341712
vt 0.267808 0.232679
vt 0.268698 0.547661
vt 0.809854 0.343030
vt 0.839906 0.341992
vt 0.840315 0.443671
vt 0.810123 0.442551
vt 0.803964 0.226583
vt 0.835885 0.222008
vt 0.930515 0.340918
vt 0.930924 0.442597
vt 0.837040 0.561364
vt 0.805129 0.557479
vt 0.773957 0.342623
vt 0.773795 0.442188
vt 0.933790 0.223226
vt 0.770830 0.234864
vt 0.960976 0.441560
vt 0.960707 0.342039
vt 0.934945 0.562582
vt 0.771906 0.549846
vt 0.965701 0.227110
vt 0.966866 0.558006
vt 0.993717 0.439903
vt 0.994042 0.343476
vt 0.998924 0.234744
vt 1.000000 0.549726
vt 0.587687 0.213887
vt 0.585642 0.178935
vt 0.686349 0.178421
vt 0.684661 0.213392
vt 0.585102 0.073178
vt 0.685809 0.072664
vt 0.593438 0.254890
vt 0.680000 0.254670
vt 0.586790 0.038207
vt 0.683764 0.037712
vt 0.592056 0.000439
vt 0.678113 0.000000
vt 0.587227 0.604729
vt 0.588925 0.569758
vt 0.685900 0.569293
vt 0.687933 0.604246
vt 0.591734 0.527712
vt 0.679684 0.527709
vt 0.688441 0.710002
vt 0.587735 0.710486
vt 0.589768 0.745439
vt 0.686743 0.744973
vt 0.595408 0.783152
vt 0.681466 0.782739
vt 0.176767 0.525458
vt 0.178369 0.258002
vt 0.089702 0.524936
vt 0.091304 0.257480
vt 0.000000 0.442018
vt 0.000615 0.339318
vn 0.000000 0.000000 1.000000
vn 0.000000 0.000000 1.000000
vn 0.000000 0.000000 1.000000
vn 0.000000 0.000000 1.000000
vn 0.000000 0.000000 1.000000
vn 0.000000 0.000000 1.000000
vn 0.000000 0.000000 1.000000
vn 0.000000 0.000000 1.000000
vn 0.000000 0.000000 -1.000000
vn 0.000000 0.000000 -1.000000
vn 0.000000 0.000000 -1.000000
vn 0.000000 0.000000 -1.000000
vn 0.000000 0.000000 -1.000000
vn 0.000000 0.000000 -1.000000
vn 0.000000 0.000000 -1.000000
vn 0.000000 0.000000 -1.000000
vn -0.599043 -0.288679 0.746868
vn -0.668627 -0.732073 0.130416
vn -0.668585 -0.732027 0.130886
vn -0.279969 -0.609508 0.741699
vn -0.991503 0.000000 0.130084
vn -0.599043 0.288679 0.746868
vn -0.991503 0.000000 0.130084
vn 0.000000 -0.991449 0.130496
vn 0.000000 -0.991449 0.130496
vn 0.279969 -0.609508 0.741700
vn -0.668627 0.732073 0.130416
vn -0.279969 0.609507 0.741700
vn -0.668585 0.732027 0.130887
vn 0.668585 -0.732027 0.130886
vn 0.668627 -0.732073 0.130416
vn 0.599043 -0.288679 0.746868
vn 0.991503 0.000000 0.130084
vn 0.991503 0.000000 0.130084
vn 0.599043 0.288679 0.746868
vn 0.668627 0.732073 0.130416
vn 0.668585 0.732027 0.130887
vn 0.279969 0.609507 0.741700
vn 0.000000 0.991449 0.130497
vn 0.000000 0.991449 0.130497
vn -0.599043 0.288679 -0.746868
vn -0.668627 0.732073 -0.130416
vn -0.668585 0.732027 -0.130887
vn -0.279969 0.609507 -0.741700
vn -0.991503 0.000000 -0.130084
vn -0.599043 -0.288679 -0.746868
vn -0.991503 0.000000 -0.130084
vn -0.668627 -0.732073 -0.130416
vn -0.279969 -0.609508 -0.741699
vn -0.668585 -0.732027 -0.130886
vn 0.000000 0.991449 -0.130497
vn 0.000000 0.991449 -0.130497
vn 0.279969 0.609507 -0.741700
vn 0.668585 0.732027 -0.130887
vn 0.668627 0.732073 -0.130416
vn 0.599043 0.288679 -0.746868
vn 0.991503 0.000000 -0.130084
vn 0.991503 0.000000 -0.130084
vn 0.599043 -0.288679 -0.746868
vn 0.668627 -0.732073 -0.130416
vn 0.668585 -0.732027 -0.130886
vn 0.279969 -0.609507 -0.741700
vn 0.000000 -0.991449 -0.130496
vn 0.000000 -0.991449 -0.130496
vn -0.445521 -0.215655 0.868910
vn -0.210541 -0.456253 0.864584
vn -0.445522 0.215655 0.868909
vn 0.210541 -0.456253 0.864584
vn 0.445522 -0.215655 0.868910
vn 0.445522 0.215655 0.868909
vn -0.210542 0.456253 0.864584
vn 0.210542 0.456253 0.864584
vn -0.445522 0.215655 -0.868909
vn -0.445521 -0.215655 -0.868910
vn -0.210542 0.456253 -0.864584
vn 0.210542 0.456253 -0.864584
vn 0.445522 0.215655 -0.868909
vn 0.445522 -0.215655 -0.868910
vn -0.210541 -0.456253 -0.864584
vn 0.210541 -0.456253 -0.864584
s 1
g pCube1
usemtl initialShadingGroup
f 1/7/1 2/55/2 6/65/3 5/8/4
f 2/55/2 3/56/5 7/66/6 6/65/3
f 3/56/5 4/35/7 8/36/8 7/66/6
s 2
f 9/21/9 10/73/10 14/74/11 13/22/12
f 10/73/10 11/75/13 15/76/14 14/74/11
f 11/75/13 12/77/15 16/78/16 15/76/14
s 3
f 17/2/17 18/1/18 20/5/19 19/6/20
f 18/1/21 17/2/17 21/3/22 22/4/23
f 19/49/20 20/50/24 24/51/25 23/52/26
f 22/4/27 21/3/22 29/9/28 30/10/29
f 23/29/26 24/30/30 26/26/31 25/25/32
f 25/25/32 26/26/33 28/27/34 27/28/35
f 27/28/35 28/27/36 32/33/37 31/34/38
f 30/61/39 29/62/28 31/63/38 32/64/40
f 33/17/41 34/12/42 38/16/43 37/20/44
f 34/12/45 33/17/41 35/18/46 36/11/47
f 36/11/48 35/18/46 45/19/49 46/13/50
f 37/69/44 38/68/51 40/67/52 39/70/53
f 39/44/53 40/41/54 42/32/55 41/39/56
f 41/39/56 42/32/57 44/31/58 43/40/59
f 43/40/59 44/31/60 48/37/61 47/43/62
f 46/53/63 45/57/49 47/58/62 48/54/64
f 1/7/65 17/2/17 19/6/20 2/14/66
f 17/2/17 1/7/65 5/8/67 21/3/22
f 2/55/66 19/49/20 23/52/26 3/56/68
f 3/38/68 23/29/26 25/25/32 4/35/69
f 4/35/69 25/25/32 27/28/35 8/36/70
f 21/3/22 5/8/67 6/15/71 29/9/28
f 29/62/28 6/65/71 7/66/72 31/63/38
f 31/34/38 7/42/72 8/36/70 27/28/35
f 33/17/41 9/21/73 13/22/74 35/18/46
f 9/21/73 33/17/41 37/20/44 10/24/75
f 10/71/75 37/69/44 39/70/53 11/72/76
f 11/48/76 39/44/53 41/39/56 12/45/77
f 12/45/77 41/39/56 43/40/59 16/46/78
f 35/18/46 13/22/74 14/23/79 45/19/49
f 45/57/49 14/59/79 15/60/80 47/58/62
f 47/43/62 15/47/80 16/46/78 43/40/59
f 22/4/27 30/10/29 38/16/43 34/12/42
f 30/61/39 32/64/40 40/67/52 38/68/51
f 32/33/37 28/27/36 42/32/55 40/41/54
f 36/11/48 46/13/50 20/5/19 18/1/18
f 46/53/63 48/54/64 24/51/25 20/50/24
f 48/37/61 44/31/60 26/26/31 24/30/30
f 26/26/33 44/31/58 42/32/57 28/27/34
f 36/11/47 18/1/21 22/4/23 34/12/45
