# This file uses centimeters as units for non-parametric coordinates.

mtllib firewall.mtl
g default
v -1.000000 0.000000 0.150000
v 1.000000 0.000000 0.150000
v -1.000000 1.000000 0.150000
v 1.000000 1.000000 0.150000
v -1.000000 1.000000 -0.150000
v 1.000000 1.000000 -0.150000
v -1.000000 0.000000 -0.150000
v 1.000000 0.000000 -0.150000
v -1.000000 0.793177 0.150000
v -1.000000 0.793177 -0.150000
v 1.000000 0.793177 -0.150000
v 1.000000 0.793177 0.150000
v -1.000000 0.278847 0.150000
v -1.000000 0.278847 -0.150000
v 1.000000 0.278847 -0.150000
v 1.000000 0.278847 0.150000
v -1.000000 0.214520 0.150000
v -1.000000 0.214520 -0.150000
v 1.000000 0.214520 -0.150000
v 1.000000 0.214520 0.150000
v -1.000000 0.730677 0.150000
v -1.000000 0.730677 -0.150000
v 1.000000 0.730677 -0.150000
v 1.000000 0.730677 0.150000
v -1.000000 0.536347 0.150000
v -1.000000 0.536347 -0.150000
v 1.000000 0.536347 -0.150000
v 1.000000 0.536347 0.150000
v -1.000000 0.473847 0.150000
v -1.000000 0.473847 -0.150000
v 1.000000 0.473847 -0.150000
v 1.000000 0.473847 0.150000
v -0.983672 0.214520 0.147551
v -0.983672 0.214520 -0.147551
v -0.983672 0.278847 0.147551
v -0.983672 0.278847 -0.147551
v 0.983672 0.278847 -0.147551
v 0.983672 0.214520 -0.147551
v 0.983672 0.214520 0.147551
v 0.983672 0.278847 0.147551
v -0.983672 0.730677 0.147551
v -0.983672 0.730677 -0.147551
v -0.983672 0.793177 0.147551
v -0.983672 0.793177 -0.147551
v 0.983672 0.793177 -0.147551
v 0.983672 0.730677 -0.147551
v 0.983672 0.730677 0.147551
v 0.983672 0.793177 0.147551
v -0.983672 0.473847 0.147551
v -0.983672 0.473847 -0.147551
v -0.983672 0.536347 0.147551
v -0.983672 0.536347 -0.147551
v 0.983672 0.536347 -0.147551
v 0.983672 0.473847 -0.147551
v 0.983672 0.473847 0.147551
v 0.983672 0.536347 0.147551
vt 0.756002 0.256162
vt 0.755898 0.500160
vt 0.499948 0.500052
vt 0.500052 0.256054
vt 0.000000 0.499840
vt 0.000103 0.255842
vt 0.256054 0.255950
vt 0.255950 0.499948
vt 0.255842 0.755899
vt 0.499840 0.756002
vt 0.499736 1.000000
vt 0.255738 0.999896
vt 0.256162 0.000000
vt 0.500160 0.000103
vt 0.205589 0.255929
vt 0.256075 0.205486
vt 0.205486 0.499927
vt 0.255929 0.550413
vt 0.499927 0.550516
vt 0.550413 0.500073
vt 0.500073 0.205589
vt 0.550516 0.256075
vt 0.072126 0.255872
vt 0.256132 0.072022
vt 0.072022 0.499870
vt 0.255872 0.683876
vt 0.499870 0.683980
vt 0.683876 0.500130
vt 0.500130 0.072126
vt 0.683980 0.256132
vt 0.052446 0.255864
vt 0.256140 0.052342
vt 0.052342 0.499862
vt 0.255864 0.703556
vt 0.499862 0.703660
vt 0.703556 0.500138
vt 0.500138 0.052446
vt 0.703660 0.256140
vt 0.186355 0.255921
vt 0.256083 0.186252
vt 0.186252 0.499919
vt 0.255921 0.569647
vt 0.499919 0.569750
vt 0.569647 0.500081
vt 0.500081 0.186355
vt 0.569750 0.256083
vt 0.138939 0.255901
vt 0.256103 0.138836
vt 0.138836 0.499899
vt 0.255901 0.617063
vt 0.499899 0.617166
vt 0.617063 0.500101
vt 0.500101 0.138939
vt 0.617166 0.256103
vt 0.119705 0.255892
vt 0.256112 0.119602
vt 0.119602 0.499890
vt 0.255892 0.636297
vt 0.499890 0.636400
vt 0.636297 0.500110
vt 0.500110 0.119705
vt 0.636400 0.256112
vt 0.054335 0.497871
vt 0.054437 0.257857
vt 0.070133 0.257863
vt 0.070031 0.497877
vt 0.257863 0.685869
vt 0.497877 0.685971
vt 0.497871 0.701667
vt 0.257857 0.701565
vt 0.701667 0.258131
vt 0.701565 0.498145
vt 0.685869 0.498139
vt 0.685971 0.258125
vt 0.258131 0.054335
vt 0.498145 0.054437
vt 0.498139 0.070133
vt 0.258125 0.070031
vt 0.188245 0.497927
vt 0.188347 0.257914
vt 0.203596 0.257920
vt 0.203495 0.497934
vt 0.257920 0.552406
vt 0.497934 0.552507
vt 0.497928 0.567757
vt 0.257914 0.567655
vt 0.567757 0.258074
vt 0.567655 0.498088
vt 0.552405 0.498082
vt 0.552507 0.258068
vt 0.258074 0.188245
vt 0.498088 0.188347
vt 0.498082 0.203597
vt 0.258068 0.203495
vt 0.121595 0.497899
vt 0.121697 0.257885
vt 0.136946 0.257892
vt 0.136845 0.497906
vt 0.257892 0.619056
vt 0.497906 0.619157
vt 0.497899 0.634407
vt 0.257885 0.634305
vt 0.634407 0.258103
vt 0.634305 0.498117
vt 0.619056 0.498110
vt 0.619157 0.258096
vt 0.258103 0.121595
vt 0.498117 0.121697
vt 0.498110 0.136946
vt 0.258096 0.136845
vn 0.000000 0.000000 1.000000
vn 0.000000 0.000000 1.000000
vn 0.000000 0.000000 1.000000
vn 0.000000 0.000000 1.000000
vn 0.000000 1.000000 0.000000
vn 0.000000 1.000000 0.000000
vn 0.000000 1.000000 0.000000
vn 0.000000 1.000000 0.000000
vn 0.000000 0.000000 -1.000000
vn 0.000000 0.000000 -1.000000
vn 0.000000 0.000000 -1.000000
vn 0.000000 0.000000 -1.000000
vn 0.000000 -1.000000 0.000000
vn 0.000000 -1.000000 0.000000
vn 0.000000 -1.000000 0.000000
vn 0.000000 -1.000000 0.000000
vn 1.000000 0.000000 0.000000
vn 1.000000 0.000000 0.000000
vn 1.000000 0.000000 0.000000
vn 1.000000 0.000000 0.000000
vn -1.000000 0.000000 0.000000
vn -1.000000 0.000000 0.000000
vn -1.000000 0.000000 0.000000
vn -1.000000 0.000000 0.000000
vn -1.000000 0.000000 0.000000
vn -1.000000 0.000000 0.000000
vn -1.000000 0.000000 0.000000
vn -1.000000 0.000000 0.000000
vn 0.000000 0.000000 -1.000000
vn 0.000000 0.000000 -1.000000
vn 0.000000 0.000000 -1.000000
vn 0.000000 0.000000 -1.000000
vn 1.000000 0.000000 0.000000
vn 1.000000 0.000000 0.000000
vn 1.000000 0.000000 0.000000
vn 1.000000 0.000000 0.000000
vn 0.000000 0.000000 1.000000
vn 0.000000 0.000000 1.000000
vn 0.000000 0.000000 1.000000
vn 0.000000 0.000000 1.000000
vn -1.000000 0.000000 0.000000
vn -1.000000 0.000000 0.000000
vn -1.000000 0.000000 0.000000
vn -1.000000 0.000000 0.000000
vn 0.000000 0.000000 -1.000000
vn 0.000000 0.000000 -1.000000
vn 0.000000 0.000000 -1.000000
vn 0.000000 0.000000 -1.000000
vn 1.000000 0.000000 0.000000
vn 1.000000 0.000000 0.000000
vn 1.000000 0.000000 0.000000
vn 1.000000 0.000000 0.000000
vn 0.000000 0.000000 1.000000
vn 0.000000 0.000000 1.000000
vn 0.000000 0.000000 1.000000
vn 0.000000 0.000000 1.000000
vn -1.000000 0.000000 0.000000
vn -1.000000 0.000000 0.000000
vn -1.000000 0.000000 0.000000
vn -1.000000 0.000000 0.000000
vn 0.000000 0.000000 -1.000000
vn 0.000000 0.000000 -1.000000
vn 0.000000 0.000000 -1.000000
vn 0.000000 0.000000 -1.000000
vn 1.000000 0.000000 0.000000
vn 1.000000 0.000000 0.000000
vn 1.000000 0.000000 0.000000
vn 1.000000 0.000000 0.000000
vn 0.000000 0.000000 1.000000
vn 0.000000 0.000000 1.000000
vn 0.000000 0.000000 1.000000
vn 0.000000 0.000000 1.000000
vn -1.000000 0.000000 0.000000
vn -1.000000 0.000000 0.000000
vn -1.000000 0.000000 0.000000
vn -1.000000 0.000000 0.000000
vn 0.000000 0.000000 -1.000000
vn 0.000000 0.000000 -1.000000
vn 0.000000 0.000000 -1.000000
vn 0.000000 0.000000 -1.000000
vn 1.000000 0.000000 0.000000
vn 1.000000 0.000000 0.000000
vn 1.000000 0.000000 0.000000
vn 1.000000 0.000000 0.000000
vn 0.000000 0.000000 1.000000
vn 0.000000 0.000000 1.000000
vn 0.000000 0.000000 1.000000
vn 0.000000 0.000000 1.000000
vn -1.000000 0.000000 0.000000
vn -1.000000 0.000000 0.000000
vn -1.000000 0.000000 0.000000
vn -1.000000 0.000000 0.000000
vn 0.000000 0.000000 -1.000000
vn 0.000000 0.000000 -1.000000
vn 0.000000 0.000000 -1.000000
vn 0.000000 0.000000 -1.000000
vn 1.000000 0.000000 0.000000
vn 1.000000 0.000000 0.000000
vn 1.000000 0.000000 0.000000
vn 1.000000 0.000000 0.000000
vn 0.000000 0.000000 1.000000
vn 0.000000 0.000000 1.000000
vn 0.000000 0.000000 1.000000
vn 0.000000 0.000000 1.000000
vn -1.000000 0.000000 0.000000
vn -1.000000 0.000000 0.000000
vn -1.000000 0.000000 0.000000
vn -1.000000 0.000000 0.000000
vn 0.000000 0.000000 -1.000000
vn 0.000000 0.000000 -1.000000
vn 0.000000 0.000000 -1.000000
vn 0.000000 0.000000 -1.000000
vn 1.000000 0.000000 0.000000
vn 1.000000 0.000000 0.000000
vn 1.000000 0.000000 0.000000
vn 1.000000 0.000000 0.000000
vn 0.000000 0.000000 1.000000
vn 0.000000 0.000000 1.000000
vn 0.000000 0.000000 1.000000
vn 0.000000 0.000000 1.000000
vn 0.000000 1.000000 0.000000
vn 0.000000 1.000000 0.000000
vn 0.000000 1.000000 0.000000
vn 0.000000 1.000000 0.000000
vn 0.000000 -1.000000 -0.000000
vn 0.000000 -1.000000 -0.000000
vn 0.000000 -1.000000 -0.000000
vn 0.000000 -1.000000 -0.000000
vn 0.000000 -1.000000 0.000001
vn 0.000000 -1.000000 0.000001
vn 0.000000 -1.000000 0.000001
vn 0.000000 -1.000000 0.000001
vn 0.000000 1.000000 -0.000009
vn 0.000000 1.000000 -0.000009
vn 0.000000 1.000000 -0.000009
vn 0.000000 1.000000 -0.000009
vn 0.000000 1.000000 0.000000
vn 0.000000 1.000000 0.000000
vn 0.000000 1.000000 0.000000
vn 0.000000 1.000000 0.000000
vn 0.000000 -1.000000 -0.000000
vn 0.000000 -1.000000 -0.000000
vn 0.000000 -1.000000 -0.000000
vn 0.000000 -1.000000 -0.000000
vn 0.000000 1.000000 0.000009
vn 0.000000 1.000000 0.000009
vn 0.000000 1.000000 0.000009
vn 0.000000 1.000000 0.000009
vn 0.000000 -1.000000 -0.000001
vn 0.000000 -1.000000 -0.000001
vn 0.000000 -1.000000 -0.000001
vn 0.000000 -1.000000 -0.000001
vn 0.000000 1.000000 0.000000
vn 0.000000 1.000000 0.000000
vn 0.000000 1.000000 0.000000
vn 0.000000 1.000000 0.000000
vn 0.000000 -1.000000 0.000000
vn 0.000000 -1.000000 0.000000
vn 0.000000 -1.000000 0.000000
vn 0.000000 -1.000000 0.000000
vn 0.000000 -1.000000 -0.000002
vn 0.000000 -1.000000 -0.000002
vn 0.000000 -1.000000 -0.000002
vn 0.000000 -1.000000 -0.000002
vn 0.000000 1.000000 0.000001
vn 0.000000 1.000000 0.000001
vn 0.000000 1.000000 0.000001
vn 0.000000 1.000000 0.000001
vn 0.000000 1.000000 0.000000
vn 0.000000 1.000000 0.000000
vn 0.000000 1.000000 0.000000
vn 0.000000 1.000000 0.000000
vn 0.000000 -1.000000 0.000000
vn 0.000000 -1.000000 0.000000
vn 0.000000 -1.000000 0.000000
vn 0.000000 -1.000000 0.000000
vn 0.000000 1.000000 -0.000001
vn 0.000000 1.000000 -0.000001
vn 0.000000 1.000000 -0.000001
vn 0.000000 1.000000 -0.000001
vn 0.000000 -1.000000 0.000002
vn 0.000000 -1.000000 0.000002
vn 0.000000 -1.000000 0.000002
vn 0.000000 -1.000000 0.000002
vn 0.000000 1.000000 0.000000
vn 0.000000 1.000000 0.000000
vn 0.000000 1.000000 0.000000
vn 0.000000 1.000000 0.000000
vn 0.000000 -1.000000 0.000000
vn 0.000000 -1.000000 0.000000
vn 0.000000 -1.000000 0.000000
vn 0.000000 -1.000000 0.000000
vn 0.000000 -1.000000 -0.000000
vn 0.000000 -1.000000 -0.000000
vn 0.000000 -1.000000 -0.000000
vn 0.000000 -1.000000 -0.000000
vn 0.000000 1.000000 0.000000
vn 0.000000 1.000000 0.000000
vn 0.000000 1.000000 0.000000
vn 0.000000 1.000000 0.000000
vn 0.000000 1.000000 0.000000
vn 0.000000 1.000000 0.000000
vn 0.000000 1.000000 0.000000
vn 0.000000 1.000000 0.000000
vn 0.000000 -1.000000 0.000000
vn 0.000000 -1.000000 0.000000
vn 0.000000 -1.000000 0.000000
vn 0.000000 -1.000000 0.000000
vn 0.000000 1.000000 0.000001
vn 0.000000 1.000000 0.000001
vn 0.000000 1.000000 0.000001
vn 0.000000 1.000000 0.000001
vn 0.000000 -1.000000 0.000000
vn 0.000000 -1.000000 0.000000
vn 0.000000 -1.000000 0.000000
vn 0.000000 -1.000000 0.000000
s off
g firewall
usemtl initialShadingGroup
f 1/13/1 2/14/2 20/37/3 17/32/4
f 3/7/5 4/4/6 6/3/7 5/8/8
f 18/34/9 19/35/10 8/10/11 7/9/12
f 7/9/13 8/10/14 2/11/15 1/12/16
f 2/1/17 8/2/18 19/36/19 20/38/20
f 7/5/21 1/6/22 17/31/23 18/33/24
f 10/17/25 9/15/26 3/7/27 5/8/28
f 5/8/29 6/3/30 11/19/31 10/18/32
f 12/22/33 11/20/34 6/3/35 4/4/36
f 9/16/37 12/21/38 4/4/39 3/7/40
f 14/25/41 13/23/42 29/55/43 30/57/44
f 30/58/45 31/59/46 15/27/47 14/26/48
f 16/30/49 15/28/50 31/60/51 32/62/52
f 13/24/53 16/29/54 32/61/55 29/56/56
f 34/63/57 33/64/58 35/65/59 36/66/60
f 36/67/61 37/68/62 38/69/63 34/70/64
f 39/71/65 38/72/66 37/73/67 40/74/68
f 33/75/69 39/76/70 40/77/71 35/78/72
f 42/79/73 41/80/74 43/81/75 44/82/76
f 44/83/77 45/84/78 46/85/79 42/86/80
f 47/87/81 46/88/82 45/89/83 48/90/84
f 41/91/85 47/92/86 48/93/87 43/94/88
f 26/49/89 25/47/90 21/39/91 22/41/92
f 22/42/93 23/43/94 27/51/95 26/50/96
f 28/54/97 27/52/98 23/44/99 24/46/100
f 25/48/101 28/53/102 24/45/103 21/40/104
f 50/95/105 49/96/106 51/97/107 52/98/108
f 52/99/109 53/100/110 54/101/111 50/102/112
f 55/103/113 54/104/114 53/105/115 56/106/116
f 49/107/117 55/108/118 56/109/119 51/110/120
f 18/33/121 17/31/122 33/64/123 34/63/124
f 13/23/125 14/25/126 36/66/127 35/65/128
f 14/26/129 15/27/130 37/68/131 36/67/132
f 19/35/133 18/34/134 34/70/135 38/69/136
f 20/38/137 19/36/138 38/72/139 39/71/140
f 15/28/141 16/30/142 40/74/143 37/73/144
f 17/32/145 20/37/146 39/76/147 33/75/148
f 16/29/149 13/24/150 35/78/151 40/77/152
f 22/41/153 21/39/154 41/80/155 42/79/156
f 9/15/157 10/17/158 44/82/159 43/81/160
f 10/18/161 11/19/162 45/84/163 44/83/164
f 23/43/165 22/42/166 42/86/167 46/85/168
f 24/46/169 23/44/170 46/88/171 47/87/172
f 11/20/173 12/22/174 48/90/175 45/89/176
f 21/40/177 24/45/178 47/92/179 41/91/180
f 12/21/181 9/16/182 43/94/183 48/93/184
f 30/57/185 29/55/186 49/96/187 50/95/188
f 25/47/189 26/49/190 52/98/191 51/97/192
f 26/50/193 27/51/194 53/100/195 52/99/196
f 31/59/197 30/58/198 50/102/199 54/101/200
f 32/62/201 31/60/202 54/104/203 55/103/204
f 27/52/205 28/54/206 56/106/207 53/105/208
f 29/56/209 32/61/210 55/108/211 49/107/212
f 28/53/213 25/48/214 51/110/215 56/109/216
