# This file uses centimeters as units for non-parametric coordinates.

mtllib VPN moddel.mtl
g default
v 0.236482 0.575574 0.129404
v 0.000000 0.575575 0.143932
v -0.236482 0.575574 0.129404
v -0.236482 0.575574 -0.129404
v 0.000000 0.575575 -0.143932
v 0.236482 0.575574 -0.129404
v -0.292465 0.307087 0.065694
v -0.186260 0.194746 0.063514
v 0.000115 0.095534 0.064808
v 0.186515 0.195565 0.063827
v 0.286628 0.306877 0.065894
v -0.392134 0.909867 0.064625
v -0.215773 0.925482 0.106885
v 0.000115 1.033439 0.115263
v 0.216003 0.925482 0.106885
v 0.392019 0.909685 0.064670
v -0.359964 0.574241 0.089498
v 0.357272 0.574241 0.089623
v -0.398539 0.918954 -0.062962
v -0.216090 0.932630 -0.104597
v 0.000115 1.041665 -0.112852
v 0.216319 0.932630 -0.104597
v 0.400274 0.921305 -0.062410
v -0.298232 0.304683 -0.063127
v -0.186082 0.188974 -0.061782
v 0.000115 0.089306 -0.062506
v 0.186299 0.188555 -0.061622
v 0.292347 0.304536 -0.063267
v -0.365596 0.574241 -0.086798
v 0.362876 0.574241 -0.086885
v -0.343826 0.273014 0.027285
v -0.351132 0.268166 0.011712
v -0.202783 0.128521 0.024024
v -0.204988 0.119682 0.008302
v -0.424925 0.575349 0.025504
v -0.431611 0.575463 0.008999
v 0.000013 0.010593 0.026479
v 0.000000 0.000000 0.011341
v 0.202826 0.128564 0.023974
v 0.204988 0.119682 0.008220
v 0.336772 0.273020 0.027420
v 0.343961 0.268166 0.011812
v 0.421501 0.575349 0.025475
v 0.428133 0.575463 0.008943
v -0.474058 0.996914 0.023327
v -0.483333 1.006770 0.007460
v -0.246625 1.006713 0.068816
v -0.250000 1.015598 0.053127
v 0.000011 1.126644 0.065670
v 0.000000 1.136344 0.048092
v 0.246719 1.006900 0.068706
v 0.250000 1.015598 0.053130
v 0.474051 0.996901 0.023322
v 0.483333 1.006770 0.007438
v -0.473502 0.996588 -0.031201
v -0.483333 1.006770 -0.015615
v -0.246302 1.006550 -0.076184
v -0.250000 1.015598 -0.060844
v -0.424731 0.575336 -0.031584
v -0.431611 0.575463 -0.015153
v 0.000012 1.126807 -0.064159
v 0.000000 1.136344 -0.046268
v 0.246238 1.006330 -0.076298
v 0.250000 1.015598 -0.060847
v 0.473462 0.996613 -0.031234
v 0.483333 1.006770 -0.015622
v 0.421299 0.575335 -0.031706
v 0.428133 0.575463 -0.015251
v -0.343433 0.273481 -0.034184
v -0.351132 0.268166 -0.018928
v -0.202435 0.129040 -0.031790
v -0.204988 0.119682 -0.016414
v 0.000014 0.011240 -0.033365
v 0.000000 0.000000 -0.018568
v 0.202443 0.129061 -0.031768
v 0.204988 0.119682 -0.016360
v 0.336387 0.273503 -0.034295
v 0.343961 0.268166 -0.019002
vt 0.668355 0.001992
vt 0.667799 0.088641
vt 0.555287 0.136774
vt 0.506903 0.140126
vt 0.817308 0.052546
vt 0.812583 0.138520
vt 0.542341 0.195816
vt 0.668256 0.201092
vt 0.482084 0.200964
vt 0.848053 0.110217
vt 0.844000 0.202052
vt 0.668309 0.234626
vt 0.540114 0.226981
vt 0.432933 0.197711
vt 0.465499 0.138324
vt 0.478172 0.232365
vt 0.848237 0.233869
vt 0.540114 0.289777
vt 0.668309 0.283931
vt 0.428244 0.227866
vt 0.478172 0.282456
vt 0.848237 0.280863
vt 0.542139 0.321584
vt 0.668261 0.317620
vt 0.428244 0.288817
vt 0.481877 0.314561
vt 0.844120 0.313233
vt 0.556263 0.399991
vt 0.667799 0.448347
vt 0.432663 0.319667
vt 0.509828 0.395779
vt 0.807736 0.397497
vt 0.668355 0.529418
vt 0.468098 0.397777
vt 0.848291 0.405720
vt 0.814326 0.483526
vt 0.113724 0.241837
vt 0.115746 0.210101
vt 0.241871 0.213732
vt 0.241919 0.247366
vt 0.051781 0.248787
vt 0.055469 0.216747
vt 0.129961 0.131826
vt 0.241409 0.083316
vt 0.417735 0.218167
vt 0.421847 0.250503
vt 0.113724 0.304278
vt 0.241919 0.296585
vt 0.051781 0.299156
vt 0.001854 0.242594
vt 0.006273 0.211743
vt 0.083096 0.136270
vt 0.241965 0.001992
vt 0.381422 0.134005
vt 0.421847 0.297527
vt 0.241866 0.330070
vt 0.115941 0.335369
vt 0.055685 0.330490
vt 0.001854 0.303544
vt 0.041707 0.133634
vt 0.387936 0.047885
vt 0.421823 0.125465
vt 0.417599 0.329289
vt 0.128958 0.394352
vt 0.241409 0.442592
vt 0.080688 0.391611
vt 0.006543 0.333699
vt 0.385213 0.394015
vt 0.241965 0.529418
vt 0.039109 0.393086
vt 0.421755 0.420961
vt 0.390918 0.478864
vt 0.574131 0.752825
vt 0.577533 0.720489
vt 0.660960 0.627787
vt 0.659722 0.659759
vt 0.751432 0.634198
vt 0.751428 0.670020
vt 0.659722 0.892021
vt 0.574131 0.799849
vt 0.672278 0.550206
vt 0.751470 0.533133
vt 0.841930 0.628012
vt 0.843134 0.659754
vt 0.751428 0.862318
vt 0.577737 0.831611
vt 0.661079 0.923283
vt 0.830663 0.550206
vt 0.925321 0.720500
vt 0.928725 0.752870
vt 0.843134 0.892027
vt 0.751432 0.898777
vt 0.928725 0.799863
vt 0.841753 0.923515
vt 0.672161 0.981186
vt 0.751470 0.998008
vt 0.925104 0.831680
vt 0.830779 0.981186
vt 0.302471 0.733391
vt 0.389218 0.733391
vt 0.381705 0.879361
vt 0.302513 0.924398
vt 0.302513 0.533133
vt 0.370889 0.574863
vt 0.215724 0.733391
vt 0.223320 0.879361
vt 0.234146 0.574521
vt 0.402407 0.578619
vt 0.481716 0.533133
vt 0.481674 0.727571
vt 0.394927 0.727571
vt 0.561025 0.578619
vt 0.568421 0.727571
vt 0.481716 0.930427
vt 0.413415 0.888849
vt 0.550013 0.889024
vn -0.381124 -0.210314 0.900285
vn -0.140264 -0.217707 0.965883
vn -0.121807 -0.046051 0.991485
vn -0.365717 -0.051862 0.929280
vn -0.000081 -0.230977 0.972959
vn -0.000139 -0.048566 0.998820
vn 0.140703 -0.216978 0.965983
vn 0.122037 -0.045951 0.991461
vn 0.391538 -0.213029 0.895163
vn 0.371994 -0.053609 0.926686
vn 0.395121 0.083133 0.914860
vn 0.147771 0.116581 0.982127
vn 0.000060 0.161327 0.986901
vn -0.147483 0.116652 0.982161
vn -0.392185 0.085140 0.915938
vn -0.342583 -0.048451 -0.938237
vn -0.122710 -0.044885 -0.991427
vn -0.129417 -0.203770 -0.970427
vn -0.353603 -0.198955 -0.913992
vn 0.000056 -0.047181 -0.998886
vn 0.000132 -0.214191 -0.976792
vn 0.123339 -0.044874 -0.991350
vn 0.130223 -0.203778 -0.970318
vn 0.347515 -0.049509 -0.936367
vn 0.362664 -0.201555 -0.909863
vn -0.365062 0.068055 -0.928492
vn -0.144783 0.109945 -0.983336
vn -0.000019 0.153296 -0.988180
vn 0.145462 0.109423 -0.983294
vn 0.368392 0.066228 -0.927309
vn -0.601768 -0.297848 0.741055
vn -0.879799 -0.437588 0.185660
vn -0.595944 -0.781598 0.184268
vn -0.356622 -0.484937 0.798534
vn -0.673926 -0.111605 0.730321
vn -0.969079 -0.175706 0.173245
vn -0.440815 -0.744941 0.500745
vn -0.440815 -0.744941 0.500745
vn -0.627475 0.007845 0.778597
vn -0.978838 -0.116033 0.168561
vn 0.441087 -0.745034 0.500367
vn 0.441087 -0.745034 0.500367
vn 0.603890 -0.775685 0.183385
vn 0.361548 -0.483139 0.797408
vn 0.883003 -0.432198 0.183060
vn 0.609870 -0.298492 0.734139
vn 0.967730 -0.185015 0.171077
vn 0.678051 -0.118617 0.725380
vn 0.978175 -0.123869 0.166823
vn 0.630784 0.003204 0.775952
vn -0.141537 0.825214 0.546799
vn -0.141537 0.825214 0.546799
vn -0.314539 0.805879 0.501622
vn -0.254365 0.815729 0.519505
vn -0.375960 0.792135 0.480808
vn -0.375960 0.792135 0.480808
vn 0.376553 0.793768 0.477640
vn 0.376553 0.793768 0.477640
vn 0.314903 0.807555 0.498689
vn 0.254574 0.817399 0.516769
vn 0.141426 0.826802 0.544423
vn 0.141426 0.826802 0.544423
vn -0.144197 0.810828 -0.567243
vn -0.144197 0.810829 -0.567243
vn -0.254077 0.809025 -0.530022
vn -0.298864 0.805060 -0.512405
vn -0.976810 -0.116395 -0.179707
vn -0.607371 -0.004519 -0.794406
vn -0.651863 -0.108369 -0.750553
vn -0.968013 -0.175695 -0.179114
vn -0.360652 0.796310 -0.485614
vn -0.360652 0.796310 -0.485614
vn -0.576425 -0.281768 -0.767034
vn -0.877740 -0.436769 -0.196990
vn 0.360006 0.794704 -0.488715
vn 0.360006 0.794704 -0.488715
vn 0.253724 0.807415 -0.532641
vn 0.298337 0.803444 -0.515241
vn 0.144213 0.809322 -0.569386
vn 0.144213 0.809322 -0.569386
vn 0.613493 -0.010126 -0.789636
vn 0.976121 -0.124143 -0.178261
vn 0.966573 -0.184960 -0.177558
vn 0.656983 -0.115847 -0.744952
vn 0.881015 -0.431429 -0.194117
vn 0.584639 -0.282914 -0.760366
vn -0.522384 -0.675839 -0.519958
vn -0.593856 -0.778981 -0.201305
vn -0.429459 -0.728420 -0.533824
vn -0.429459 -0.728420 -0.533824
vn 0.429723 -0.728612 -0.533351
vn 0.429723 -0.728612 -0.533351
vn 0.530250 -0.670747 -0.518588
vn 0.601768 -0.773074 -0.200578
vn 0.000813 -0.435900 0.899995
vn -0.216639 0.347990 0.912124
vn 0.000285 0.418331 0.908295
vn 0.216827 0.348222 0.911991
vn -0.202872 0.315601 -0.926952
vn -0.000390 0.406245 -0.913764
vn 0.202483 0.317804 -0.926284
vn -0.254488 -0.356387 -0.899013
vn -0.000285 -0.372580 -0.928000
vn 0.257898 -0.355744 -0.898296
vn -0.037808 0.999285 0.000000
vn -0.353266 0.935523 0.000000
vn -0.343948 0.938989 0.000000
vn -0.037808 0.999285 0.000000
vn -0.434915 0.900472 0.000000
vn -0.434915 0.900472 0.000000
vn 0.434915 0.900471 0.000000
vn 0.353293 0.935512 0.000000
vn 0.343947 0.938989 0.000000
vn 0.434915 0.900471 0.000000
vn 0.037808 0.999285 0.000000
vn 0.037808 0.999285 0.000000
vn -0.504204 -0.863585 0.000000
vn -0.504204 -0.863585 0.000000
vn 0.504204 -0.863584 0.000000
vn 0.504204 -0.863584 0.000000
s 1
g pCube1
usemtl initialShadingGroup
f 7/43/1 8/52/2 3/53/3 17/44/4
f 8/107/2 9/103/5 2/99/6 3/105/3
f 9/103/5 10/104/7 1/100/8 2/99/6
f 10/31/7 11/28/9 18/29/10 1/33/8
f 1/33/8 18/29/10 16/32/11 15/36/12
f 2/99/6 1/100/8 15/101/12 14/102/13
f 3/105/3 2/99/6 14/102/13 13/106/14
f 17/44/4 3/53/3 13/61/14 12/54/15
f 29/65/16 4/69/17 25/66/18 24/64/19
f 4/111/17 5/110/20 26/114/21 25/115/18
f 5/110/20 6/113/22 27/116/23 26/114/21
f 6/1/22 30/2/24 28/3/25 27/4/23
f 19/68/26 20/72/27 4/69/17 29/65/16
f 20/108/27 21/109/28 5/110/20 4/111/17
f 21/109/28 22/112/29 6/113/22 5/110/20
f 22/5/29 23/6/30 30/2/24 6/1/22
f 31/38/31 32/37/32 34/41/33 33/42/34
f 32/37/32 31/38/31 35/39/35 36/40/36
f 33/42/34 34/41/33 38/50/37 37/51/38
f 36/40/36 35/39/35 45/45/39 46/46/40
f 37/30/41 38/25/42 40/21/43 39/26/44
f 39/26/44 40/21/43 42/18/45 41/23/46
f 41/23/46 42/18/45 44/19/47 43/24/48
f 43/24/48 44/19/47 54/22/49 53/27/50
s 5
f 46/73/51 45/74/52 47/75/53 48/76/54
f 48/76/54 47/75/53 49/77/55 50/78/56
s 6
f 50/78/57 49/77/58 51/83/59 52/84/60
f 52/84/60 51/83/59 53/89/61 54/90/62
s 7
f 55/86/63 56/80/64 58/79/65 57/87/66
s 1
f 56/55/67 55/63/68 59/56/69 60/48/70
s 7
f 57/87/66 58/79/65 62/85/71 61/92/72
s 1
f 60/48/70 59/56/69 69/57/73 70/47/74
s 8
f 61/92/75 62/85/76 64/91/77 63/94/78
f 63/94/78 64/91/77 66/93/79 65/97/80
s 1
f 65/11/81 66/17/82 68/12/83 67/8/84
f 67/8/84 68/12/83 78/13/85 77/7/86
f 70/47/74 69/57/73 71/58/87 72/49/88
f 72/49/88 71/58/87 73/67/89 74/59/90
f 74/20/91 73/14/92 75/9/93 76/16/94
f 76/16/94 75/9/93 77/7/86 78/13/85
f 7/43/1 31/38/31 33/42/34 8/52/2
f 31/38/31 7/43/1 17/44/4 35/39/35
f 8/52/2 33/42/34 37/51/95 9/60/5
f 9/34/5 37/30/95 39/26/44 10/31/7
f 10/31/7 39/26/44 41/23/46 11/28/9
f 11/28/9 41/23/46 43/24/48 18/29/10
f 12/54/15 45/45/39 35/39/35 17/44/4
f 45/45/39 12/54/15 13/61/14 47/62/96
f 47/75/96 13/81/14 14/82/13 49/77/97
f 49/77/97 14/82/13 15/88/12 51/83/98
f 51/35/98 15/36/12 16/32/11 53/27/50
f 53/27/50 16/32/11 18/29/10 43/24/48
f 19/68/26 55/63/68 57/71/99 20/72/27
f 55/63/68 19/68/26 29/65/16 59/56/69
f 20/95/27 57/87/99 61/92/100 21/96/28
f 21/96/28 61/92/100 63/94/101 22/98/29
f 22/5/29 63/10/101 65/11/81 23/6/30
f 23/6/30 65/11/81 67/8/84 30/2/24
f 24/64/19 69/57/73 59/56/69 29/65/16
f 69/57/73 24/64/19 25/66/18 71/58/102
f 71/58/102 25/66/18 26/70/21 73/67/103
f 73/14/103 26/15/21 27/4/23 75/9/104
f 75/9/104 27/4/23 28/3/25 77/7/86
f 77/7/86 28/3/25 30/2/24 67/8/84
s 9
f 46/73/105 48/76/106 58/79/107 56/80/108
f 48/76/106 50/78/109 62/85/110 58/79/107
s 10
f 50/78/111 52/84/112 64/91/113 62/85/114
f 52/84/112 54/90/115 66/93/116 64/91/113
s 1
f 70/47/74 72/49/88 34/41/33 32/37/32
f 72/49/88 74/59/117 38/50/118 34/41/33
f 74/20/119 76/16/94 40/21/43 38/25/120
f 76/16/94 78/13/85 42/18/45 40/21/43
f 42/18/45 78/13/85 68/12/83 44/19/47
f 70/47/74 32/37/32 36/40/36 60/48/70
f 60/48/70 36/40/36 46/46/40 56/55/67
f 44/19/47 68/12/83 66/17/82 54/22/49
